<?xml version="1.0" encoding="utf-8"?>
<!-- Generator: Adobe Illustrator 25.2.1, SVG Export Plug-In . SVG Version: 6.00 Build 0)  -->
<svg version="1.1" id="Camada_1" xmlns="http://www.w3.org/2000/svg" xmlns:xlink="http://www.w3.org/1999/xlink" x="0px" y="0px"
	 viewBox="0 0 1920 1080" style="enable-background:new 0 0 1920 1080;" xml:space="preserve">
<style type="text/css">
	.st0{fill:#FEFEFE;}
	.st1{fill:#462917;}
	.st2{fill:#AB9A8B;}
</style>
<g>
	<g>
		<path class="st0" d="M1787.87,127.44c0,218.61,0,437.21,0,655.82c-1.96-0.25-3.92-0.62-5.89-0.74c-7.59-0.44-15.23-0.29-22.8-0.36
			c-4.89-0.05-10.08-2.44-15,0.31c-4.51,2.52-9.63,1.9-14.09,0.92c-7.17-1.58-14.31-1.36-21.48-1.6
			c-9.84-0.66-19.69-0.68-29.55-0.44c-3.67-0.02-7.36-0.63-11,0.36c-4.42,0.17-8.98,1.13-13.22,0.36
			c-8.51-1.54-16.99-1.44-25.53-1.36c-4.21-0.77-8.42-0.77-12.63,0c-3.15,0.14-6.3,0.44-9.44,0.4c-24.87-0.25-49.75,0.53-74.6-1.07
			c-6.04-0.39-11.9,1.4-17.87,1.33c-20.78-0.23-41.54-1.69-62.35-1.27c-23.61,0.47-47.22-0.77-70.85-0.59
			c-16.1,0.12-32.17,0.86-48.26,0.89c-30.24,0.06-60.47-0.95-90.72-0.56c-18.25,0.24-36.54-0.53-54.83-0.22
			c-24.08,0.4-48.15-0.77-72.26,0.27c-15.88,0.68-31.8-0.64-47.75,0.01c-14.24,0.58-28.53-0.3-42.8-0.48
			c-16.87-0.22-33.75-0.27-50.62-0.61c-15.89-0.32-31.77-0.92-47.65-1.4c-4.44,0.16-9.22-2.13-13.13,1.82
			c-2.63,0.01-5.25,0.02-7.88,0.02c-15.74,0.01-31.47-0.6-47.18-1.56c-5.96-0.37-11.82,1.81-17.56,1.28
			c-22.22-2.04-44.48-0.81-66.69-1.21c-22.89-0.42-45.82-1.12-68.78,0.19c-20.84,1.19-41.8,0.11-62.71,0.35
			c-26.62,0.3-53.22-0.35-79.84-0.79c-26.98-0.45-53.96-0.11-80.94,0.81c-9.44,0.32-18.9-0.16-28.36-0.07
			c-40.53,0.38-81.08-0.22-121.61,0.79c-16.93,0.42-33.87,0.47-50.81,0.7c-0.54,0.01-1.07,0.11-1.61,0.17
			c0.2,0.2,0.59,0.45,0.56,0.6c-0.28,1.21-1.35,0.83-2,0.71c-7.22-1.44-14.58-0.75-21.85-1.19c-9.88-0.6-19.9,0.78-29.85,1.4
			c-6.43,0.4-12.94-0.97-19.31,0.84c-3.21,0.28-6.71-0.97-10.39,2.27c4.23-0.28,7.47-0.5,10.72-0.72c4.32,0.16,8.64,0.45,12.96,0.45
			c78.38,0.03,156.77,0.04,235.15,0.01c45.08-0.01,90.17-0.15,135.25-0.14c52.2,0,104.4,0.27,156.59,0.11
			c62.07-0.19,124.15,0.79,186.22-0.65c19.76-0.46,39.51,0.33,59.27,0.63c21.47,0.32,42.95,0.08,64.42,0.07
			c81.89-0.05,163.79-0.2,245.68-0.08c16.3,0.02,32.64-1.33,48.86-0.57c25.11,1.17,50.2,0.6,75.26,0.23
			c15.59-0.23,31.24-0.56,46.76-0.11c33.67,0.97,67.29-0.92,100.94-0.52c13.77,0.16,27.53,0.32,41.29,0.48
			c3.99,1.16,8.03,0.51,12.06,0.39c13.25-1.5,26.49,0.59,39.74,0.12c4.11-0.41,8.21-0.17,12.32-0.03
			c6.27,0.21,12.56-0.08,18.85-0.15c2.88-0.53,5.77-0.89,8.7-0.32c7.9,0.88,15.81,0.11,23.72,0.1c18.79-0.02,37.57,0.28,56.36,0.45
			c-0.22,0.31,0.51,1.04-0.5,1.01c-1.33-0.04-2.66-0.01-4-0.01c-536.9,0-1073.8,0-1610.69,0.09c-3.75,0-4.59-0.84-4.59-4.58
			c0.1-216.94,0.09-433.89,0.16-650.83c0-1.46-1.15-3.38,0.94-4.49c0.46,0.45,0.89,1.26,1.38,1.29c13.09,0.85,26.23,0.16,39.3,1.47
			c2.71,0.27,0.43-2.03,1.28-2.76c6.99,0,13.99,0,20.98,0c-4.9,3.22-10.38,0.56-14.66,1.5c4.25,0.29,9.38,0.3,14.46,0.36
			c5.89,0.07,11.79,1.64,17.69,0.31c11.44,1.23,22.89,0.6,34.36,0.48c14.92-0.15,29.85,0.55,44.77,0.88
			c7.77,0.69,15.54,1.08,23.28-0.39c8.66-0.01,17.32-0.01,25.98-0.02c1.33,0.91,2.66,0.89,3.99,0.02
			c13.72,0.19,27.45-0.21,41.14,1.02c7.17,0.64,14.24-1.29,21.36-1.25c20.78,0.13,41.52,1.47,62.32,1.29
			c23.44-0.21,46.89,0.07,70.32,0.48c16.44,0.29,32.83-0.83,49.25-0.84c30.06-0.03,60.11,0.95,90.19,0.57
			c18.08-0.23,36.19,0.49,54.31,0.22c24.56-0.36,49.12,0.42,73.71-0.21c17.71-0.46,35.48,0.42,53.23-0.17
			c6.11-0.2,12.26,0.78,18.38,0.63c22.85-0.56,45.68,0.31,68.52,0.58c15.88,0.19,31.75,0.9,47.62,1.38c2.47,0.1,4.96,0.42,7.42,0.24
			c1.69-0.12,4.23,1.09,4.75-2.01c0.63-0.01,1.26-0.02,1.9-0.03c0.64,0.75,1.08,2.46,2.31,0.49c1.13-0.18,2.26-0.52,3.39-0.52
			c16.08-0.02,32.14,0.53,48.19,1.55c5.97,0.38,11.84-1.79,17.59-1.27c22.22,1.99,44.49,0.82,66.71,1.21
			c22.89,0.4,45.82,1.12,68.78-0.2c21.01-1.2,42.14-0.11,63.21-0.34c26.29-0.29,52.57,0.33,78.85,0.79
			c27.14,0.47,54.3,0.12,81.44-0.81c9.44-0.32,18.9,0.17,28.36,0.07c40.21-0.41,80.42,0.16,120.63-0.75
			c17.97-0.41,35.96-0.07,53.94-0.07c-0.27-0.7-0.67-0.41-0.78-0.5c-0.35-0.28-0.6-0.7-0.88-1.06c1.81-1.25,3.84-0.6,5.74-0.51
			c10.76,0.51,21.51,2.22,32.29,0.84c11.75-1.51,23.6-0.48,35.36-1.63C1763.65,126.91,1775.75,126.39,1787.87,127.44z"/>
		<path class="st1" d="M1751.56,127.77c-11.76,1.15-23.6,0.12-35.36,1.63c-10.78,1.38-21.53-0.33-32.29-0.84
			c-1.9-0.09-3.93-0.74-5.74,0.51c0.29,0.36,0.53,0.78,0.88,1.06c0.11,0.09,0.51-0.2,0.78,0.5c-17.98,0-35.97-0.34-53.94,0.07
			c-40.21,0.92-80.42,0.35-120.63,0.75c-9.46,0.1-18.92-0.4-28.36-0.07c-27.14,0.93-54.3,1.29-81.44,0.81
			c-26.28-0.46-52.56-1.08-78.85-0.79c-21.07,0.23-42.2-0.86-63.21,0.34c-22.96,1.31-45.89,0.59-68.78,0.2
			c-22.22-0.38-44.49,0.78-66.71-1.21c-5.75-0.51-11.62,1.66-17.59,1.27c-16.04-1.02-32.11-1.57-48.19-1.55
			c-1.13,0-2.26,0.34-3.39,0.52c-0.77-0.16-1.54-0.33-2.31-0.49c-0.63,0.01-1.26,0.02-1.9,0.03c-4.07,0.51-8.54-1.74-12.17,1.77
			c-15.87-0.48-31.75-1.19-47.62-1.38c-22.84-0.28-45.67-1.14-68.52-0.58c-6.12,0.15-12.27-0.83-18.38-0.63
			c-17.75,0.59-35.52-0.29-53.23,0.17c-24.59,0.64-49.15-0.15-73.71,0.21c-18.12,0.27-36.23-0.45-54.31-0.22
			c-30.08,0.38-60.13-0.6-90.19-0.57c-16.42,0.02-32.81,1.13-49.25,0.84c-23.44-0.41-46.88-0.69-70.32-0.48
			c-20.8,0.18-41.54-1.16-62.32-1.29c-7.12-0.04-14.18,1.89-21.36,1.25c-13.7-1.23-27.43-0.83-41.14-1.02
			c-1.33-1.08-2.65-1.58-3.99-0.02c-8.66,0.01-17.32,0.01-25.98,0.02c-0.92-1.57-4.66,0.42-4-3.15c4.66,0,9.33,0,13.99,0
			c0.72,1.75,2.25,0.92,3.39,0.94c6.21,0.11,12.41,0.08,18.62,0.1c4.63-0.63,9.56,2.7,13.96-1.04c8.99,0,17.99,0,26.98,0
			c7.66,1.61,15.32,1.39,22.98,0c19.32,0,38.64,0,57.95,0c3.87,1.61,7.97,0.64,11.95,1.04c6.18,1.16,12.41,0.72,18.96,0.81
			c-1.31-1.35-3.37,0.15-3.93-1.85c42.97,0,85.93,0,128.9,0c13.99,1.56,27.98,1.58,41.97,0c97.59,0,195.17,0,292.76,0
			c0.36,1.34,1.49,1.07,2.43,1.1c10.3,0.32,20.63-0.64,30.92,0.64c1.28,0.16,2.27-0.38,2.62-1.74c169.86,0,339.72,0,509.59,0
			c5.66,1.35,11.32,1.65,16.99,0c62.62,0,125.23,0,187.85,0C1748.2,126.73,1750.62,125.76,1751.56,127.77z"/>
		<path class="st1" d="M328.75,128.98c-14.92-0.33-29.85-1.04-44.77-0.88c-11.47,0.12-22.92,0.75-34.36-0.48
			c0.4-1.95,3.08-0.24,3.49-2.17c4.66,0,9.33,0,13.99,0c6.5,2.07,13.21,0.72,19.81,1.22c0.72,0.06,1.17-0.44,1.17-1.22
			c14.32,0,28.64,0,42.97,0C331.21,127.23,328.81,127.34,328.75,128.98z M328,127.03c-2.62-0.81-3.96-1.2-5.39-0.22
			C323.81,127.67,325.08,127.45,328,127.03z"/>
		<path class="st2" d="M1708.61,781.8c7.18,0.24,14.31,0.03,21.48,1.6c4.46,0.98,9.58,1.6,14.09-0.92c4.91-2.75,10.11-0.36,15-0.31
			c7.57,0.07,15.21-0.08,22.8,0.36c1.97,0.11,3.93,0.48,5.89,0.74c0,0.33,0,0.67,0,1c-18.79-0.17-37.57-0.47-56.36-0.45
			c-7.91,0.01-15.81,0.77-23.72-0.1C1708.06,783.07,1708.34,782.44,1708.61,781.8z"/>
		<path class="st2" d="M211.15,125.45c-0.85,0.73,1.43,3.03-1.28,2.76c-13.07-1.3-26.22-0.62-39.3-1.47
			c-0.49-0.03-0.92-0.84-1.38-1.29C183.17,125.45,197.16,125.45,211.15,125.45z"/>
		<path class="st2" d="M328.75,128.98c0.06-1.64,2.46-1.76,2.3-3.54c5.66,0,11.32,0,16.99,0c-0.66,3.57,3.07,1.58,4,3.15
			C344.29,130.06,336.52,129.67,328.75,128.98z"/>
		<path class="st2" d="M1751.56,127.77c-0.94-2-3.36-1.04-4.66-2.32c8.33,0,16.65,0,24.98,0c5.16,3.02,10.62,1.22,15.99,1
			c0,0.33,0,0.67,0,1C1775.75,126.39,1763.65,126.91,1751.56,127.77z"/>
		<path class="st2" d="M253.11,125.45c-0.41,1.93-3.09,0.23-3.49,2.17c-5.9,1.33-11.8-0.25-17.69-0.31
			c-5.08-0.06-10.21-0.07-14.46-0.36c4.27-0.94,9.75,1.72,14.66-1.5C239.12,125.45,246.12,125.45,253.11,125.45z"/>
		<path class="st2" d="M703.75,125.45c-13.99,1.58-27.98,1.56-41.97,0C675.77,125.45,689.76,125.45,703.75,125.45z"/>
		<path class="st2" d="M1032.48,125.45c-0.36,1.36-1.34,1.9-2.62,1.74c-10.29-1.28-20.62-0.32-30.92-0.64
			c-0.93-0.03-2.07,0.24-2.43-1.1C1008.5,125.45,1020.49,125.45,1032.48,125.45z"/>
		<path class="st2" d="M532.88,125.45c0.56,1.99,2.63,0.5,3.93,1.85c-6.56-0.09-12.78,0.34-18.96-0.81
			c2.68-0.35,5.36-0.69,8.04-1.04C528.22,125.45,530.55,125.45,532.88,125.45z"/>
		<path class="st2" d="M447.95,125.45c-7.66,1.39-15.32,1.61-22.98,0C432.63,125.45,440.29,125.45,447.95,125.45z"/>
		<path class="st0" d="M384.04,126.49c-6.21-0.02-12.42,0.01-18.62-0.1c-1.14-0.02-2.67,0.8-3.39-0.94c7.33,0,14.65,0,21.98,0
			C384.02,125.79,384.03,126.14,384.04,126.49z"/>
		<path class="st0" d="M288.08,125.45c0,0.78-0.45,1.28-1.17,1.22c-6.6-0.5-13.31,0.85-19.81-1.22
			C274.09,125.45,281.09,125.45,288.08,125.45z"/>
		<path class="st0" d="M525.89,125.45c-2.68,0.35-5.36,0.69-8.04,1.04c-3.98-0.4-8.08,0.57-11.95-1.04
			C512.57,125.45,519.23,125.45,525.89,125.45z"/>
		<path class="st2" d="M384.04,126.49c-0.01-0.35-0.02-0.69-0.03-1.04c4.66,0,9.33,0,13.99,0
			C393.6,129.19,388.67,125.86,384.04,126.49z"/>
		<path class="st2" d="M1559.05,125.45c-5.66,1.65-11.32,1.35-16.99,0C1547.73,125.45,1553.39,125.45,1559.05,125.45z"/>
		<path class="st0" d="M1787.87,126.44c-5.36,0.23-10.83,2.02-15.99-1c4.83,0,9.66-0.02,14.49,0.02
			C1786.98,125.47,1788.21,124.85,1787.87,126.44z"/>
		<path class="st1" d="M1616.12,783.7c-13.76-0.16-27.53-0.32-41.29-0.48c-33.64-0.39-67.26,1.49-100.94,0.52
			c-15.52-0.45-31.17-0.11-46.76,0.11c-25.06,0.36-50.15,0.94-75.26-0.23c-16.21-0.76-32.55,0.59-48.86,0.57
			c-81.89-0.11-163.79,0.03-245.68,0.08c-21.48,0.01-42.95,0.25-64.42-0.07c-19.76-0.29-39.51-1.09-59.27-0.63
			c-62.07,1.45-124.15,0.46-186.22,0.65c-52.2,0.16-104.39-0.1-156.59-0.11c-45.08,0-90.17,0.13-135.25,0.14
			c-78.38,0.03-156.77,0.01-235.15-0.01c-4.32,0-8.64-0.29-12.96-0.45c-0.11-0.51-0.22-1.03-0.33-1.54
			c6.37-1.81,12.88-0.44,19.31-0.84c9.95-0.61,19.96-2,29.85-1.4c7.27,0.44,14.63-0.25,21.85,1.19c0.64,0.13,1.72,0.5,2-0.71
			c0.03-0.15-0.36-0.4-0.56-0.6c0.54-0.06,1.07-0.16,1.61-0.17c16.94-0.23,33.88-0.27,50.81-0.7c40.53-1.01,81.08-0.41,121.61-0.79
			c9.46-0.09,18.92,0.39,28.36,0.07c26.98-0.92,53.96-1.26,80.94-0.81c26.61,0.45,53.21,1.1,79.84,0.79
			c20.9-0.24,41.87,0.84,62.71-0.35c22.96-1.31,45.89-0.6,68.78-0.19c22.22,0.4,44.48-0.82,66.69,1.21
			c5.74,0.53,11.6-1.65,17.56-1.28c15.71,0.96,31.43,1.57,47.18,1.56c2.63,0,5.25-0.02,7.88-0.02c4.38-0.61,9.15,1.66,13.13-1.82
			c15.88,0.48,31.77,1.08,47.65,1.4c16.87,0.34,33.75,0.39,50.62,0.61c14.27,0.19,28.56,1.06,42.8,0.48
			c15.95-0.65,31.87,0.67,47.75-0.01c24.1-1.04,48.18,0.13,72.26-0.27c18.29-0.3,36.59,0.46,54.83,0.22
			c30.26-0.4,60.48,0.62,90.72,0.56c16.09-0.03,32.17-0.77,48.26-0.89c23.63-0.18,47.23,1.06,70.85,0.59
			c20.81-0.42,41.56,1.04,62.35,1.27c5.98,0.07,11.83-1.72,17.87-1.33c24.85,1.6,49.73,0.83,74.6,1.07c3.15,0.03,6.29-0.26,9.44-0.4
			C1616.49,781.72,1616.31,782.71,1616.12,783.7z"/>
		<path class="st1" d="M1667.91,784.2c-13.25,0.47-26.49-1.62-39.74-0.12c0.77-0.99,1.52-1.98,1.14-3.36
			c8.54-0.09,17.02-0.18,25.53,1.36c4.25,0.77,8.81-0.18,13.22-0.36C1668.02,782.55,1667.97,783.38,1667.91,784.2z"/>
		<path class="st2" d="M1667.91,784.2c0.05-0.83,0.1-1.65,0.15-2.48c3.64-0.99,7.33-0.38,11-0.36c0.58,1.08,1.63,0.87,2.58,0.96
			c5.82,0.56,11.63,1.13,17.45,1.7c-6.28,0.08-12.57,0.37-18.85,0.15C1676.12,784.04,1672.02,783.8,1667.91,784.2z"/>
		<path class="st1" d="M1699.09,784.02c-5.82-0.57-11.63-1.14-17.45-1.7c-0.95-0.09-2,0.12-2.58-0.96
			c9.86-0.24,19.71-0.22,29.55,0.44c-0.27,0.63-0.55,1.27-0.82,1.9C1704.86,783.13,1701.97,783.5,1699.09,784.02z"/>
		<path class="st2" d="M1629.31,780.73c0.38,1.38-0.37,2.37-1.14,3.36c-4.03,0.13-8.07,0.77-12.06-0.39
			c0.19-0.99,0.37-1.98,0.56-2.97C1620.89,779.96,1625.1,779.95,1629.31,780.73z"/>
		<path class="st2" d="M926.68,777.41c-3.98,3.48-8.75,1.21-13.13,1.82C917.46,775.29,922.24,777.58,926.68,777.41z"/>
		<path class="st2" d="M1032.37,132.29c3.63-3.51,8.1-1.26,12.17-1.77c-0.52,3.1-3.06,1.88-4.75,2.01
			C1037.33,132.71,1034.84,132.4,1032.37,132.29z"/>
		<path class="st2" d="M207.14,782.26c0.11,0.51,0.22,1.03,0.33,1.54c-3.25,0.22-6.49,0.44-10.72,0.72
			C200.43,781.29,203.93,782.54,207.14,782.26z"/>
		<path class="st2" d="M378.01,128.57c1.34-1.57,2.67-1.06,3.99,0.02C380.67,129.46,379.34,129.49,378.01,128.57z"/>
		<path class="st2" d="M1046.43,130.49c0.77,0.16,1.54,0.33,2.31,0.49C1047.51,132.95,1047.07,131.24,1046.43,130.49z"/>
		<path class="st2" d="M328,127.03c-2.92,0.43-4.19,0.65-5.39-0.22C324.04,125.83,325.38,126.22,328,127.03z"/>
	</g>
</g>
</svg>
