<?xml version="1.0" standalone="no"?>
<!DOCTYPE svg PUBLIC "-//W3C//DTD SVG 20010904//EN"
 "http://www.w3.org/TR/2001/REC-SVG-20010904/DTD/svg10.dtd">
<svg version="1.0" xmlns="http://www.w3.org/2000/svg"
 width="1620.000000pt" height="660.000000pt" viewBox="0 0 1620.000000 660.000000"
 preserveAspectRatio="xMidYMid meet">

<g transform="translate(0.000000,660.000000) scale(0.100000,-0.100000)"
fill="#000000" stroke="none">
<path d="M630 6590 c-9 -6 -10 -10 -3 -10 6 0 15 5 18 10 8 12 4 12 -15 0z"/>
<path d="M845 6590 l-50 -5 49 -8 c68 -10 295 -8 241 3 -55 11 -180 16 -240
10z"/>
<path d="M1200 6589 c0 -5 6 -9 13 -9 6 0 77 -4 157 -9 80 -5 168 -5 195 -1
l50 7 -45 3 -45 3 55 6 c30 3 -43 7 -162 8 -128 1 -218 -2 -218 -8z"/>
<path d="M1805 6592 c-33 -2 -64 -7 -69 -13 -6 -5 92 -9 265 -9 150 -1 627 -4
1059 -8 432 -4 875 -7 985 -6 977 3 3871 -3 4110 -9 127 -3 309 -8 405 -11
111 -3 160 -1 135 4 -24 5 107 7 330 5 204 -2 408 0 455 4 47 4 86 4 88 0 3
-7 537 -15 597 -10 11 1 49 1 85 0 71 -2 228 -3 1260 -4 1546 -1 3516 11 3534
22 6 4 178 8 383 9 206 2 383 6 396 10 21 7 21 7 2 15 -25 9 -7175 11 -7189 1
-6 -4 -101 -4 -211 -1 -278 8 -4840 6 -4785 -3 25 -3 -13 -4 -85 -1 -209 9
-961 10 -1038 1 -39 -4 -103 -3 -142 2 -40 5 -86 6 -101 2 -16 -4 -114 -5
-219 -2 -104 3 -217 4 -250 2z m2048 -19 c-13 -2 -33 -2 -45 0 -13 2 -3 4 22
4 25 0 35 -2 23 -4z m2470 0 c-13 -2 -33 -2 -45 0 -13 2 -3 4 22 4 25 0 35 -2
23 -4z m5075 -20 c-10 -2 -26 -2 -35 0 -10 3 -2 5 17 5 19 0 27 -2 18 -5z"/>
<path d="M15948 6593 c12 -2 30 -2 40 0 9 3 -1 5 -23 4 -22 0 -30 -2 -17 -4z"/>
<path d="M398 6583 c7 -3 16 -2 19 1 4 3 -2 6 -13 5 -11 0 -14 -3 -6 -6z"/>
<path d="M1668 6583 c12 -2 30 -2 40 0 9 3 -1 5 -23 4 -22 0 -30 -2 -17 -4z"/>
<path d="M8758 6533 c6 -2 18 -2 25 0 6 3 1 5 -13 5 -14 0 -19 -2 -12 -5z"/>
<path d="M3157 64 c-1 -2 -245 -4 -541 -5 -299 -1 -532 -6 -524 -10 7 -5 8 -9
3 -9 -6 0 -15 4 -20 9 -6 6 -186 6 -470 1 -253 -5 -623 -12 -822 -14 -200 -3
-373 -8 -385 -12 -22 -7 -22 -7 -3 -15 25 -9 7175 -11 7189 -1 6 4 101 4 211
1 275 -8 4841 -6 4785 2 -25 4 25 4 110 1 124 -4 934 -4 1080 0 19 1 67 1 105
0 39 -1 84 -1 100 -1 17 1 135 1 264 0 155 -2 237 1 244 8 8 8 -65 11 -254 12
-145 0 -622 3 -1059 7 -437 4 -885 7 -995 6 -969 -3 -3878 3 -4110 9 -126 3
-309 8 -405 11 -111 3 -160 1 -135 -4 24 -5 -107 -7 -330 -5 -203 2 -408 0
-455 -4 -47 -4 -86 -4 -88 0 -3 7 -545 15 -602 9 -14 -1 -47 -2 -75 0 -27 1
-216 1 -420 1 -447 -1 -1054 0 -1822 4 -315 1 -574 1 -576 -1z m1701 -21 c-10
-2 -26 -2 -35 0 -10 3 -2 5 17 5 19 0 27 -2 18 -5z m5080 -20 c-10 -2 -28 -2
-40 0 -13 2 -5 4 17 4 22 1 32 -1 23 -4z m2475 0 c-13 -2 -35 -2 -50 0 -16 2
-5 4 22 4 28 0 40 -2 28 -4z"/>
<path d="M7438 63 c6 -2 18 -2 25 0 6 3 1 5 -13 5 -14 0 -19 -2 -12 -5z"/>
<path d="M14650 30 l-45 -7 45 -3 45 -3 -55 -7 -55 -7 62 -1 c34 -1 64 2 67 6
3 5 35 5 73 1 96 -11 233 -11 233 0 0 15 -300 32 -370 21z"/>
<path d="M15135 20 c43 -9 160 -13 240 -10 l50 2 -40 9 c-22 4 -96 8 -165 7
-89 0 -114 -3 -85 -8z"/>
<path d="M14518 13 c12 -2 30 -2 40 0 9 3 -1 5 -23 4 -22 0 -30 -2 -17 -4z"/>
<path d="M15575 10 c-3 -6 1 -7 9 -4 18 7 21 14 7 14 -6 0 -13 -4 -16 -10z"/>
<path d="M15808 13 c7 -3 16 -2 19 1 4 3 -2 6 -13 5 -11 0 -14 -3 -6 -6z"/>
<path d="M238 3 c12 -2 32 -2 45 0 12 2 2 4 -23 4 -25 0 -35 -2 -22 -4z"/>
</g>
</svg>
